<?xml version="1.0" encoding="UTF-8" standalone="no"?>
<!DOCTYPE svg PUBLIC "-//W3C//DTD SVG 1.1//EN"
 "http://www.w3.org/Graphics/SVG/1.1/DTD/svg11.dtd">
<!-- Generated by graphviz version 2.43.0 (0)
 -->
<!-- Title: SIGML Pages: 1 -->
<svg width="666pt" height="692pt"
 viewBox="0.00 0.00 666.19 692.00" xmlns="http://www.w3.org/2000/svg" xmlns:xlink="http://www.w3.org/1999/xlink">
<g id="graph0" class="graph" transform="scale(1 1) rotate(0) translate(4 688)">
<title>SIGML</title>
<polygon fill="white" stroke="transparent" points="-4,4 -4,-688 662.19,-688 662.19,4 -4,4"/>
<!-- sigml -->
<g id="node1" class="node">
<title>sigml</title>
<ellipse fill="none" stroke="black" cx="348.79" cy="-666" rx="36.29" ry="18"/>
<text text-anchor="middle" x="348.79" y="-662.3" font-family="Times,serif" font-size="14.00">sigml</text>
</g>
<!-- avatar -->
<g id="node2" class="node">
<title>avatar</title>
<ellipse fill="none" stroke="black" cx="119.79" cy="-558" rx="40.09" ry="18"/>
<text text-anchor="middle" x="119.79" y="-554.3" font-family="Times,serif" font-size="14.00">avatar</text>
</g>
<!-- sigml&#45;&gt;avatar -->
<g id="edge1" class="edge">
<title>sigml&#45;&gt;avatar</title>
<path fill="none" stroke="black" d="M322.97,-653.05C282.15,-634.15 202.59,-597.33 156.06,-575.79"/>
<polygon fill="black" stroke="black" points="157.48,-572.59 146.94,-571.57 154.54,-578.94 157.48,-572.59"/>
</g>
<!-- player_settings -->
<g id="node3" class="node">
<title>player_settings</title>
<ellipse fill="none" stroke="black" cx="259.79" cy="-558" rx="81.79" ry="18"/>
<text text-anchor="middle" x="259.79" y="-554.3" font-family="Times,serif" font-size="14.00">player_settings</text>
</g>
<!-- sigml&#45;&gt;player_settings -->
<g id="edge2" class="edge">
<title>sigml&#45;&gt;player_settings</title>
<path fill="none" stroke="black" d="M335.28,-648.9C320.74,-631.59 297.46,-603.86 280.59,-583.78"/>
<polygon fill="black" stroke="black" points="283.14,-581.36 274.03,-575.95 277.78,-585.86 283.14,-581.36"/>
</g>
<!-- animdata_sign -->
<g id="node4" class="node">
<title>animdata_sign</title>
<ellipse fill="none" stroke="black" cx="437.79" cy="-558" rx="77.99" ry="18"/>
<text text-anchor="middle" x="437.79" y="-554.3" font-family="Times,serif" font-size="14.00">animdata_sign</text>
</g>
<!-- sigml&#45;&gt;animdata_sign -->
<g id="edge3" class="edge">
<title>sigml&#45;&gt;animdata_sign</title>
<path fill="none" stroke="black" d="M362.31,-648.9C376.84,-631.59 400.12,-603.86 416.99,-583.78"/>
<polygon fill="black" stroke="black" points="419.81,-585.86 423.56,-575.95 414.45,-581.36 419.81,-585.86"/>
</g>
<!-- signing_ref -->
<g id="node5" class="node">
<title>signing_ref</title>
<ellipse fill="none" stroke="black" cx="595.79" cy="-558" rx="62.29" ry="18"/>
<text text-anchor="middle" x="595.79" y="-554.3" font-family="Times,serif" font-size="14.00">signing_ref</text>
</g>
<!-- sigml&#45;&gt;signing_ref -->
<g id="edge4" class="edge">
<title>sigml&#45;&gt;signing_ref</title>
<path fill="none" stroke="black" d="M375.7,-653.45C418.33,-635.16 501.82,-599.33 552.82,-577.44"/>
<polygon fill="black" stroke="black" points="554.44,-580.55 562.25,-573.39 551.68,-574.12 554.44,-580.55"/>
</g>
<!-- camera_location -->
<g id="node7" class="node">
<title>camera_location</title>
<ellipse fill="none" stroke="black" cx="85.79" cy="-450" rx="85.59" ry="18"/>
<text text-anchor="middle" x="85.79" y="-446.3" font-family="Times,serif" font-size="14.00">camera_location</text>
</g>
<!-- player_settings&#45;&gt;camera_location -->
<g id="edge6" class="edge">
<title>player_settings&#45;&gt;camera_location</title>
<path fill="none" stroke="black" d="M233.37,-540.9C203.47,-522.69 154.64,-492.94 121.4,-472.69"/>
<polygon fill="black" stroke="black" points="122.83,-469.46 112.47,-467.25 119.19,-475.44 122.83,-469.46"/>
</g>
<!-- ambient_motions -->
<g id="node8" class="node">
<title>ambient_motions</title>
<ellipse fill="none" stroke="black" cx="279.79" cy="-450" rx="90.18" ry="18"/>
<text text-anchor="middle" x="279.79" y="-446.3" font-family="Times,serif" font-size="14.00">ambient_motions</text>
</g>
<!-- player_settings&#45;&gt;ambient_motions -->
<g id="edge7" class="edge">
<title>player_settings&#45;&gt;ambient_motions</title>
<path fill="none" stroke="black" d="M263.01,-539.97C266.14,-523.38 270.95,-497.88 274.62,-478.43"/>
<polygon fill="black" stroke="black" points="278.11,-478.82 276.52,-468.34 271.23,-477.52 278.11,-478.82"/>
</g>
<!-- CAS -->
<g id="node6" class="node">
<title>CAS</title>
<ellipse fill="none" stroke="black" cx="437.79" cy="-450" rx="30.59" ry="18"/>
<text text-anchor="middle" x="437.79" y="-446.3" font-family="Times,serif" font-size="14.00">CAS</text>
</g>
<!-- animdata_sign&#45;&gt;CAS -->
<g id="edge5" class="edge">
<title>animdata_sign&#45;&gt;CAS</title>
<path fill="none" stroke="black" d="M437.79,-539.97C437.79,-523.38 437.79,-497.88 437.79,-478.43"/>
<polygon fill="black" stroke="black" points="441.29,-478.34 437.79,-468.34 434.29,-478.34 441.29,-478.34"/>
</g>
<!-- frames -->
<g id="node9" class="node">
<title>frames</title>
<ellipse fill="none" stroke="black" cx="437.79" cy="-342" rx="42.79" ry="18"/>
<text text-anchor="middle" x="437.79" y="-338.3" font-family="Times,serif" font-size="14.00">frames</text>
</g>
<!-- CAS&#45;&gt;frames -->
<g id="edge8" class="edge">
<title>CAS&#45;&gt;frames</title>
<path fill="none" stroke="black" d="M437.79,-431.97C437.79,-415.38 437.79,-389.88 437.79,-370.43"/>
<polygon fill="black" stroke="black" points="441.29,-370.34 437.79,-360.34 434.29,-370.34 441.29,-370.34"/>
</g>
<!-- signStart -->
<g id="node10" class="node">
<title>signStart</title>
<ellipse fill="none" stroke="black" cx="382.79" cy="-234" rx="53.89" ry="18"/>
<text text-anchor="middle" x="382.79" y="-230.3" font-family="Times,serif" font-size="14.00">signStart</text>
</g>
<!-- frames&#45;&gt;signStart -->
<g id="edge9" class="edge">
<title>frames&#45;&gt;signStart</title>
<path fill="none" stroke="black" d="M428.96,-323.97C420.14,-306.97 406.47,-280.62 396.29,-261.01"/>
<polygon fill="black" stroke="black" points="399.32,-259.25 391.61,-251.99 393.11,-262.48 399.32,-259.25"/>
</g>
<!-- frame -->
<g id="node11" class="node">
<title>frame</title>
<ellipse fill="none" stroke="black" cx="492.79" cy="-234" rx="38.19" ry="18"/>
<text text-anchor="middle" x="492.79" y="-230.3" font-family="Times,serif" font-size="14.00">frame</text>
</g>
<!-- frames&#45;&gt;frame -->
<g id="edge10" class="edge">
<title>frames&#45;&gt;frame</title>
<path fill="none" stroke="black" d="M446.63,-323.97C455.5,-306.87 469.28,-280.31 479.48,-260.66"/>
<polygon fill="black" stroke="black" points="482.66,-262.13 484.16,-251.64 476.45,-258.9 482.66,-262.13"/>
</g>
<!-- morph -->
<g id="node12" class="node">
<title>morph</title>
<ellipse fill="none" stroke="black" cx="446.79" cy="-126" rx="40.89" ry="18"/>
<text text-anchor="middle" x="446.79" y="-122.3" font-family="Times,serif" font-size="14.00">morph</text>
</g>
<!-- frame&#45;&gt;morph -->
<g id="edge11" class="edge">
<title>frame&#45;&gt;morph</title>
<path fill="none" stroke="black" d="M485.4,-215.97C478.06,-199.05 466.7,-172.86 458.19,-153.28"/>
<polygon fill="black" stroke="black" points="461.36,-151.77 454.16,-143.99 454.94,-154.56 461.36,-151.77"/>
</g>
<!-- bone -->
<g id="node13" class="node">
<title>bone</title>
<ellipse fill="none" stroke="black" cx="538.79" cy="-126" rx="33.29" ry="18"/>
<text text-anchor="middle" x="538.79" y="-122.3" font-family="Times,serif" font-size="14.00">bone</text>
</g>
<!-- frame&#45;&gt;bone -->
<g id="edge12" class="edge">
<title>frame&#45;&gt;bone</title>
<path fill="none" stroke="black" d="M500.18,-215.97C507.57,-198.95 519.02,-172.55 527.54,-152.93"/>
<polygon fill="black" stroke="black" points="530.8,-154.21 531.57,-143.64 524.38,-151.42 530.8,-154.21"/>
</g>
<!-- position -->
<g id="node14" class="node">
<title>position</title>
<ellipse fill="none" stroke="black" cx="477.79" cy="-18" rx="48.19" ry="18"/>
<text text-anchor="middle" x="477.79" y="-14.3" font-family="Times,serif" font-size="14.00">position</text>
</g>
<!-- bone&#45;&gt;position -->
<g id="edge13" class="edge">
<title>bone&#45;&gt;position</title>
<path fill="none" stroke="black" d="M529.26,-108.44C519.43,-91.35 503.95,-64.46 492.54,-44.62"/>
<polygon fill="black" stroke="black" points="495.48,-42.72 487.46,-35.8 489.41,-46.21 495.48,-42.72"/>
</g>
<!-- qRotation -->
<g id="node15" class="node">
<title>qRotation</title>
<ellipse fill="none" stroke="black" cx="599.79" cy="-18" rx="55.79" ry="18"/>
<text text-anchor="middle" x="599.79" y="-14.3" font-family="Times,serif" font-size="14.00">qRotation</text>
</g>
<!-- bone&#45;&gt;qRotation -->
<g id="edge14" class="edge">
<title>bone&#45;&gt;qRotation</title>
<path fill="none" stroke="black" d="M548.32,-108.44C558.16,-91.35 573.63,-64.46 585.05,-44.62"/>
<polygon fill="black" stroke="black" points="588.17,-46.21 590.13,-35.8 582.11,-42.72 588.17,-46.21"/>
</g>
</g>
</svg>
